<svg
    xmlns="http://www.w3.org/2000/svg"
    viewBox="0 0 512 512"
    id="vector">
    <path
        id="path_1"
        d="M 406.051 144.903 C 382.509 121.36 344.296 121.47 320.894 145.209 L 227.494 239.958 L 190.802 203.266 C 167.353 179.817 129.401 179.813 105.949 203.266 C 82.555 226.659 82.555 264.724 105.949 288.119 C 166.738 348.907 149.346 331.555 184.387 366.575 C 208.495 390.671 247.713 390.658 271.807 366.563 C 305.26 333.11 406.358 229.449 406.358 229.449 C 429.414 206.056 429.276 168.129 406.051 144.903 Z M 384.992 208.39 C 272.045 322.988 250.594 345.35 250.594 345.35 C 238.189 357.755 218.002 357.757 205.594 345.356 C 205.594 345.356 132.415 272.159 127.162 266.906 C 115.465 255.209 115.465 236.176 127.162 224.479 C 138.888 212.753 157.862 212.754 169.588 224.479 L 216.964 271.854 C 222.853 277.743 232.41 277.705 238.253 271.778 L 342.258 166.27 C 353.946 154.414 373.054 154.333 384.837 166.117 C 396.45 177.729 396.52 196.693 384.992 208.39 Z"
        fill="#6EC207"
        stroke-width="1"/>
</svg>
